<svg id="visual" viewBox="0 0 960 540" width="960" height="540" xmlns="http://www.w3.org/2000/svg" xmlns:xlink="http://www.w3.org/1999/xlink" version="1.1"><rect x="0" y="0" width="960" height="540" fill="#001220"></rect><path d="M0 379L22.8 377.2C45.7 375.3 91.3 371.7 137 364.5C182.7 357.3 228.3 346.7 274 350.7C319.7 354.7 365.3 373.3 411.2 373.3C457 373.3 503 354.7 548.8 349.8C594.7 345 640.3 354 686 365C731.7 376 777.3 389 823 388C868.7 387 914.3 372 937.2 364.5L960 357L960 541L937.2 541C914.3 541 868.7 541 823 541C777.3 541 731.7 541 686 541C640.3 541 594.7 541 548.8 541C503 541 457 541 411.2 541C365.3 541 319.7 541 274 541C228.3 541 182.7 541 137 541C91.3 541 45.7 541 22.8 541L0 541Z" fill="#fa7268"></path><path d="M0 429L22.8 419.7C45.7 410.3 91.3 391.7 137 390C182.7 388.3 228.3 403.7 274 410.3C319.7 417 365.3 415 411.2 413.5C457 412 503 411 548.8 402.8C594.7 394.7 640.3 379.3 686 382C731.7 384.7 777.3 405.3 823 406.3C868.7 407.3 914.3 388.7 937.2 379.3L960 370L960 541L937.2 541C914.3 541 868.7 541 823 541C777.3 541 731.7 541 686 541C640.3 541 594.7 541 548.8 541C503 541 457 541 411.2 541C365.3 541 319.7 541 274 541C228.3 541 182.7 541 137 541C91.3 541 45.7 541 22.8 541L0 541Z" fill="#ef5f67"></path><path d="M0 393L22.8 393.5C45.7 394 91.3 395 137 397.8C182.7 400.7 228.3 405.3 274 415.5C319.7 425.7 365.3 441.3 411.2 442.5C457 443.7 503 430.3 548.8 423.7C594.7 417 640.3 417 686 420.7C731.7 424.3 777.3 431.7 823 434C868.7 436.3 914.3 433.7 937.2 432.3L960 431L960 541L937.2 541C914.3 541 868.7 541 823 541C777.3 541 731.7 541 686 541C640.3 541 594.7 541 548.8 541C503 541 457 541 411.2 541C365.3 541 319.7 541 274 541C228.3 541 182.7 541 137 541C91.3 541 45.7 541 22.8 541L0 541Z" fill="#e34c67"></path><path d="M0 439L22.8 443.5C45.7 448 91.3 457 137 458.3C182.7 459.7 228.3 453.3 274 454C319.7 454.7 365.3 462.3 411.2 463.3C457 464.3 503 458.7 548.8 452.8C594.7 447 640.3 441 686 445.8C731.7 450.7 777.3 466.3 823 475.2C868.7 484 914.3 486 937.2 487L960 488L960 541L937.2 541C914.3 541 868.7 541 823 541C777.3 541 731.7 541 686 541C640.3 541 594.7 541 548.8 541C503 541 457 541 411.2 541C365.3 541 319.7 541 274 541C228.3 541 182.7 541 137 541C91.3 541 45.7 541 22.8 541L0 541Z" fill="#d53867"></path><path d="M0 475L22.8 477.7C45.7 480.3 91.3 485.7 137 488.7C182.7 491.7 228.3 492.3 274 492.2C319.7 492 365.3 491 411.2 487.5C457 484 503 478 548.8 475.8C594.7 473.7 640.3 475.3 686 477.5C731.7 479.7 777.3 482.3 823 483.3C868.7 484.3 914.3 483.7 937.2 483.3L960 483L960 541L937.2 541C914.3 541 868.7 541 823 541C777.3 541 731.7 541 686 541C640.3 541 594.7 541 548.8 541C503 541 457 541 411.2 541C365.3 541 319.7 541 274 541C228.3 541 182.7 541 137 541C91.3 541 45.7 541 22.8 541L0 541Z" fill="#c62368"></path></svg>